<svg xmlns="http://www.w3.org/2000/svg" data-name="Layer 15" viewBox="0 0 48 48" id="mosque"><path d="M43.62 40.94A22.057 22.057 0 0 0 46 31c0-9.18-10.05-14.47-16.7-17.96-1.12-.6-2.16-1.14-2.99-1.63A4.992 4.992 0 0 0 29 7a1 1 0 0 0-2 0 3 3 0 1 1-3-3 1 1 0 0 0 0-2 4.985 4.985 0 0 0-2.31 9.41c-.83.49-1.87 1.03-2.99 1.63C12.05 16.53 2 21.82 2 31a22.057 22.057 0 0 0 2.38 9.94l-2.23 3.53A1 1 0 0 0 3 46h42a1 1 0 0 0 .85-1.53ZM4.81 44l1.4-2.22C7.14 41.41 11.51 40 24 40c12.53 0 16.88 1.42 17.78 1.78L43.19 44H4.81Z"></path></svg>